<?xml version="1.0" ?>
<svg xmlns="http://www.w3.org/2000/svg" width="1200" height="902" font-family="Ubuntu Mono">
  <g>
    <text fill="black" stroke="none" text-anchor="middle" font-size="20" width="142.85714285714286" height="117.0" x="171" y="88">Mon</text>
  </g>
  <g>
    <text fill="black" stroke="none" text-anchor="middle" font-size="20" width="142.85714285714286" height="117.0" x="314" y="88">Tue</text>
  </g>
  <g>
    <text fill="black" stroke="none" text-anchor="middle" font-size="20" width="142.85714285714286" height="117.0" x="457" y="88">Wed</text>
  </g>
  <g>
    <text fill="black" stroke="none" text-anchor="middle" font-size="20" width="142.85714285714286" height="117.0" x="600" y="88">Thu</text>
  </g>
  <g>
    <text fill="black" stroke="none" text-anchor="middle" font-size="20" width="142.85714285714286" height="117.0" x="742" y="88">Fri</text>
  </g>
  <g>
    <text fill="black" stroke="none" text-anchor="middle" font-size="20" width="142.85714285714286" height="117.0" x="885" y="88">Sat</text>
  </g>
  <g>
    <text fill="black" stroke="none" text-anchor="middle" font-size="20" width="142.85714285714286" height="117.0" x="1028" y="88">Sun</text>
  </g>
  <g>
    <rect fill="#fff" stroke="black" width="142.85714285714286" height="117.0" x="385" y="100"/>
    <text fill="black" stroke="none" font-size="20" width="142.85714285714286" height="117.0" x="400" y="123">1</text>
    <text fill="#888" stroke="none" font-size="12" width="142.85714285714286" height="117.0" x="400" y="193"/>
  </g>
  <g>
    <rect fill="#fff" stroke="black" width="142.85714285714286" height="117.0" x="528" y="100"/>
    <text fill="black" stroke="none" font-size="20" width="142.85714285714286" height="117.0" x="542" y="123">2</text>
    <text fill="#888" stroke="none" font-size="12" width="142.85714285714286" height="117.0" x="542" y="193"/>
  </g>
  <g>
    <rect fill="#fff" stroke="black" width="142.85714285714286" height="117.0" x="671" y="100"/>
    <text fill="black" stroke="none" font-size="20" width="142.85714285714286" height="117.0" x="685" y="123">3</text>
    <text fill="#888" stroke="none" font-size="12" width="142.85714285714286" height="117.0" x="685" y="193"/>
  </g>
  <g>
    <rect fill="#fff" stroke="black" width="142.85714285714286" height="117.0" x="814" y="100"/>
    <text fill="black" stroke="none" font-size="20" width="142.85714285714286" height="117.0" x="828" y="123">4</text>
    <text fill="#888" stroke="none" font-size="12" width="142.85714285714286" height="117.0" x="828" y="193"/>
  </g>
  <g>
    <rect fill="#fff" stroke="black" width="142.85714285714286" height="117.0" x="957" y="100"/>
    <text fill="black" stroke="none" font-size="20" width="142.85714285714286" height="117.0" x="971" y="123">5</text>
    <text fill="#888" stroke="none" font-size="12" width="142.85714285714286" height="117.0" x="971" y="193"/>
  </g>
  <g>
    <rect fill="#fff" stroke="black" width="142.85714285714286" height="117.0" x="100" y="217"/>
    <text fill="black" stroke="none" font-size="20" width="142.85714285714286" height="117.0" x="114" y="240">6</text>
    <text fill="#888" stroke="none" font-size="12" width="142.85714285714286" height="117.0" x="114" y="310"/>
  </g>
  <g>
    <rect fill="#fff" stroke="black" width="142.85714285714286" height="117.0" x="242" y="217"/>
    <text fill="black" stroke="none" font-size="20" width="142.85714285714286" height="117.0" x="257" y="240">7</text>
    <text fill="#888" stroke="none" font-size="12" width="142.85714285714286" height="117.0" x="257" y="310"/>
  </g>
  <g>
    <rect fill="#fff" stroke="black" width="142.85714285714286" height="117.0" x="385" y="217"/>
    <text fill="black" stroke="none" font-size="20" width="142.85714285714286" height="117.0" x="400" y="240">8</text>
    <text fill="#888" stroke="none" font-size="12" width="142.85714285714286" height="117.0" x="400" y="310"/>
  </g>
  <g>
    <rect fill="#fff" stroke="black" width="142.85714285714286" height="117.0" x="528" y="217"/>
    <text fill="black" stroke="none" font-size="20" width="142.85714285714286" height="117.0" x="542" y="240">9</text>
    <text fill="#888" stroke="none" font-size="12" width="142.85714285714286" height="117.0" x="542" y="310"/>
  </g>
  <g>
    <rect fill="#fff" stroke="black" width="142.85714285714286" height="117.0" x="671" y="217"/>
    <text fill="black" stroke="none" font-size="20" width="142.85714285714286" height="117.0" x="685" y="240">10</text>
    <text fill="#888" stroke="none" font-size="12" width="142.85714285714286" height="117.0" x="685" y="310"/>
  </g>
  <g>
    <rect fill="#fff" stroke="black" width="142.85714285714286" height="117.0" x="814" y="217"/>
    <text fill="black" stroke="none" font-size="20" width="142.85714285714286" height="117.0" x="828" y="240">11</text>
    <text fill="#888" stroke="none" font-size="12" width="142.85714285714286" height="117.0" x="828" y="310"/>
  </g>
  <g>
    <rect fill="#fff" stroke="black" width="142.85714285714286" height="117.0" x="957" y="217"/>
    <text fill="black" stroke="none" font-size="20" width="142.85714285714286" height="117.0" x="971" y="240">12</text>
    <text fill="#888" stroke="none" font-size="12" width="142.85714285714286" height="117.0" x="971" y="310"/>
  </g>
  <g>
    <rect fill="#eee" stroke="black" width="142.85714285714286" height="117.0" x="100" y="334"/>
    <text fill="black" stroke="none" font-size="20" width="142.85714285714286" height="117.0" x="114" y="357">13</text>
    <text fill="#888" stroke="none" font-size="12" width="142.85714285714286" height="117.0" x="114" y="427">Duruthu Poya</text>
  </g>
  <g>
    <rect fill="#eee" stroke="black" width="142.85714285714286" height="117.0" x="242" y="334"/>
    <text fill="black" stroke="none" font-size="20" width="142.85714285714286" height="117.0" x="257" y="357">14</text>
    <text fill="#888" stroke="none" font-size="12" width="142.85714285714286" height="117.0" x="257" y="427">Tamil Thai Pongal</text>
  </g>
  <g>
    <rect fill="#fff" stroke="black" width="142.85714285714286" height="117.0" x="385" y="334"/>
    <text fill="black" stroke="none" font-size="20" width="142.85714285714286" height="117.0" x="400" y="357">15</text>
    <text fill="#888" stroke="none" font-size="12" width="142.85714285714286" height="117.0" x="400" y="427"/>
  </g>
  <g>
    <rect fill="#fff" stroke="black" width="142.85714285714286" height="117.0" x="528" y="334"/>
    <text fill="black" stroke="none" font-size="20" width="142.85714285714286" height="117.0" x="542" y="357">16</text>
    <text fill="#888" stroke="none" font-size="12" width="142.85714285714286" height="117.0" x="542" y="427"/>
  </g>
  <g>
    <rect fill="#fff" stroke="black" width="142.85714285714286" height="117.0" x="671" y="334"/>
    <text fill="black" stroke="none" font-size="20" width="142.85714285714286" height="117.0" x="685" y="357">17</text>
    <text fill="#888" stroke="none" font-size="12" width="142.85714285714286" height="117.0" x="685" y="427"/>
  </g>
  <g>
    <rect fill="#fff" stroke="black" width="142.85714285714286" height="117.0" x="814" y="334"/>
    <text fill="black" stroke="none" font-size="20" width="142.85714285714286" height="117.0" x="828" y="357">18</text>
    <text fill="#888" stroke="none" font-size="12" width="142.85714285714286" height="117.0" x="828" y="427"/>
  </g>
  <g>
    <rect fill="#fff" stroke="black" width="142.85714285714286" height="117.0" x="957" y="334"/>
    <text fill="black" stroke="none" font-size="20" width="142.85714285714286" height="117.0" x="971" y="357">19</text>
    <text fill="#888" stroke="none" font-size="12" width="142.85714285714286" height="117.0" x="971" y="427"/>
  </g>
  <g>
    <rect fill="#fff" stroke="black" width="142.85714285714286" height="117.0" x="100" y="451"/>
    <text fill="black" stroke="none" font-size="20" width="142.85714285714286" height="117.0" x="114" y="474">20</text>
    <text fill="#888" stroke="none" font-size="12" width="142.85714285714286" height="117.0" x="114" y="544"/>
  </g>
  <g>
    <rect fill="#fff" stroke="black" width="142.85714285714286" height="117.0" x="242" y="451"/>
    <text fill="black" stroke="none" font-size="20" width="142.85714285714286" height="117.0" x="257" y="474">21</text>
    <text fill="#888" stroke="none" font-size="12" width="142.85714285714286" height="117.0" x="257" y="544"/>
  </g>
  <g>
    <rect fill="#fff" stroke="black" width="142.85714285714286" height="117.0" x="385" y="451"/>
    <text fill="black" stroke="none" font-size="20" width="142.85714285714286" height="117.0" x="400" y="474">22</text>
    <text fill="#888" stroke="none" font-size="12" width="142.85714285714286" height="117.0" x="400" y="544"/>
  </g>
  <g>
    <rect fill="#fff" stroke="black" width="142.85714285714286" height="117.0" x="528" y="451"/>
    <text fill="black" stroke="none" font-size="20" width="142.85714285714286" height="117.0" x="542" y="474">23</text>
    <text fill="#888" stroke="none" font-size="12" width="142.85714285714286" height="117.0" x="542" y="544"/>
  </g>
  <g>
    <rect fill="#fff" stroke="black" width="142.85714285714286" height="117.0" x="671" y="451"/>
    <text fill="black" stroke="none" font-size="20" width="142.85714285714286" height="117.0" x="685" y="474">24</text>
    <text fill="#888" stroke="none" font-size="12" width="142.85714285714286" height="117.0" x="685" y="544"/>
  </g>
  <g>
    <rect fill="#fff" stroke="black" width="142.85714285714286" height="117.0" x="814" y="451"/>
    <text fill="black" stroke="none" font-size="20" width="142.85714285714286" height="117.0" x="828" y="474">25</text>
    <text fill="#888" stroke="none" font-size="12" width="142.85714285714286" height="117.0" x="828" y="544"/>
  </g>
  <g>
    <rect fill="#fff" stroke="black" width="142.85714285714286" height="117.0" x="957" y="451"/>
    <text fill="black" stroke="none" font-size="20" width="142.85714285714286" height="117.0" x="971" y="474">26</text>
    <text fill="#888" stroke="none" font-size="12" width="142.85714285714286" height="117.0" x="971" y="544"/>
  </g>
  <g>
    <rect fill="#fff" stroke="black" width="142.85714285714286" height="117.0" x="100" y="568"/>
    <text fill="black" stroke="none" font-size="20" width="142.85714285714286" height="117.0" x="114" y="591">27</text>
    <text fill="#888" stroke="none" font-size="12" width="142.85714285714286" height="117.0" x="114" y="661"/>
  </g>
  <g>
    <rect fill="#fff" stroke="black" width="142.85714285714286" height="117.0" x="242" y="568"/>
    <text fill="black" stroke="none" font-size="20" width="142.85714285714286" height="117.0" x="257" y="591">28</text>
    <text fill="#888" stroke="none" font-size="12" width="142.85714285714286" height="117.0" x="257" y="661"/>
  </g>
  <g>
    <rect fill="#fff" stroke="black" width="142.85714285714286" height="117.0" x="385" y="568"/>
    <text fill="black" stroke="none" font-size="20" width="142.85714285714286" height="117.0" x="400" y="591">29</text>
    <text fill="#888" stroke="none" font-size="12" width="142.85714285714286" height="117.0" x="400" y="661"/>
  </g>
  <g>
    <rect fill="#fff" stroke="black" width="142.85714285714286" height="117.0" x="528" y="568"/>
    <text fill="black" stroke="none" font-size="20" width="142.85714285714286" height="117.0" x="542" y="591">30</text>
    <text fill="#888" stroke="none" font-size="12" width="142.85714285714286" height="117.0" x="542" y="661"/>
  </g>
  <g>
    <rect fill="#fff" stroke="black" width="142.85714285714286" height="117.0" x="671" y="568"/>
    <text fill="black" stroke="none" font-size="20" width="142.85714285714286" height="117.0" x="685" y="591">31</text>
    <text fill="#888" stroke="none" font-size="12" width="142.85714285714286" height="117.0" x="685" y="661"/>
  </g>
  <text x="600" y="50" font-size="30" text-anchor="middle">2025 January</text>
</svg>
